# xmcd
#
# Track frame offsets: 
#        150
#        17011
#        33947
#
# Disc length: 676 seconds
#
# Revision: 1
# Processed by: cddbd v1.5.2PL0 Copyright (c) Steve Scherf et al.
# Submitted via: ExactAudioCopy v0.99pb3
#
DISCID=1702a203
DTITLE=Pharoahe Monch - Agent Orange CDS
DYEAR=2006
DGENRE=Rap
TTITLE0=Agent Orange (clean)
TTITLE1=Agent Orange (dirty)
TTITLE2=Agent Orange (instrumental)
EXTD=
EXTT0=
EXTT1=
EXTT2=
PLAYORDER=
